<?xml version="1.0" encoding="UTF-8"?>
<svg id="Layer_1" xmlns="http://www.w3.org/2000/svg" version="1.1" viewBox="0 0 560.8 260.76">
  <!-- Generator: Adobe Illustrator 30.3.0, SVG Export Plug-In . SVG Version: 2.1.3 Build 182)  -->
  <defs>
    <style>
      .st0 {
        fill: none;
      }

      .st1 {
        fill: #fff;
      }
    </style>
  </defs>
  <path class="st1" d="M280.13,90.09c-1.84,0-3.34,1.5-3.34,3.34s1.5,3.34,3.34,3.34,3.34-1.5,3.34-3.34-1.5-3.34-3.34-3.34Z"/>
  <path class="st1" d="M300.87,97.54c3.84,0,7.56-1.65,10.22-4.52l.63-.68-4.53-3.4-.51.51c-1.56,1.54-3.62,2.4-5.81,2.4-4.56,0-8.27-3.71-8.27-8.27s3.71-8.27,8.27-8.27c2.45,0,4.77,1.11,6.36,3.06l.43.53,5.08-2.68-.56-.78c-2.62-3.64-6.86-5.82-11.32-5.82-7.7,0-13.96,6.26-13.96,13.96s6.26,13.96,13.96,13.96Z"/>
  <path class="st1" d="M323.47,96.46c1.6,0,3.16-.42,4.54-1.22l.69,1.52h4.99v-18.7h-4.99l-.69,1.52c-1.38-.8-2.94-1.22-4.54-1.22-4.99,0-9.05,4.06-9.05,9.05s4.06,9.05,9.05,9.05ZM323.73,83.62c2.03,0,4.19,1.35,4.19,3.86s-2.16,3.86-4.19,3.86-3.86-1.73-3.86-3.86,1.73-3.86,3.86-3.86Z"/>
  <polygon class="st1" points="215.57 78.89 215.57 75.26 215.57 69.48 209.8 69.48 209.8 96.76 215.57 96.76 215.57 78.89"/>
  <path class="st1" d="M346.85,85.59c-1.82-.48-2.1-.56-2.99-.82-.59-.17-.81-.43-.81-.99,0-.51.31-1.06.99-1.06l7.11.14-.88-4.82h-6.8c-3.35,0-5.69,2.37-5.69,5.77,0,2.54,1.67,4.29,4.83,5.07,1.95.48,2.45.61,3.33.85.74.2,1.03.55,1,1.2-.03.6-.43,1.22-1.15,1.22h-7.44l.76,4.62h6.64c4.36,0,6.35-2.96,6.35-5.7,0-2.6-1.92-4.59-5.26-5.46Z"/>
  <path class="st1" d="M241.86,97.14c5.16,0,9.35-4.2,9.35-9.35s-4.2-9.35-9.35-9.35-9.35,4.2-9.35,9.35,4.2,9.35,9.35,9.35ZM241.86,84.11c2.03,0,3.67,1.65,3.67,3.67s-1.65,3.67-3.67,3.67-3.67-1.65-3.67-3.67,1.65-3.67,3.67-3.67Z"/>
  <path class="st1" d="M263,97.14c5.16,0,9.35-4.2,9.35-9.35s-4.2-9.35-9.35-9.35-9.35,4.2-9.35,9.35,4.2,9.35,9.35,9.35ZM263,84.11c2.03,0,3.67,1.65,3.67,3.67s-1.65,3.67-3.67,3.67-3.67-1.65-3.67-3.67,1.65-3.67,3.67-3.67Z"/>
  <rect class="st1" x="355.92" y="70.07" width="5.84" height="26.69"/>
  <path class="st1" d="M409.78,146.71v-7.23c4.84,2.54,8.51,4.07,8.51,4.07l5.42-10.06c-9.51-2.96-17.81-7.65-23.85-12.71-.05-.04-.15-.14-.19-.17,0,0-.89,1.62-2.3,3.59-1.42,1.97-3.97,4.43-3.97,4.43,0,0,.78.72.83.76,3.56,3.03,7.87,5.8,11.85,8.06h-30.65c2.6-1.54,5.16-3.18,7.32-4.76,6.2-4.54,10.03-8.23,12.47-12.03,1.77-2.76,2.54-4.05,2.77-4.9.12-.43-.21-.86-.66-.86h-12.28c-4.56,7.66-14.21,13.94-27.99,20.07.18.37,4.87,9.73,4.87,9.73,1.55-.73,5.07-2.5,9.05-4.7v6.71h14v6.33h-14v9.26h14v11.45h-6.86v-7.87h-8.86v7.87h-9.2v9.26h60.67v-9.26h-9.2v-7.87h-8.86v7.87h-6.86v-11.45h14v-9.26h-14v-6.33h14Z"/>
  <path class="st1" d="M244.15,140.96l-9.88,3.38,1.5,4.37h-26.85v8.69h14.52l-14.72,7.38,4.3,8.59,7.63-3.82.03,6.28-8.16,1.56,1.71,8.99,28.23-5.38-1.71-8.99-10.61,2.02.04-9.25,10.58-5.31,4.73,13.3c2.21,6.46,8.28,10.8,15.1,10.8h12.66v-8.96h-12.66c-2.99,0-5.66-1.9-6.62-4.74l-4.44-12.46h24.3v-8.69h-27.02l-2.65-7.75Z"/>
  <polygon class="st1" points="216.61 132.74 216.61 145.32 226.66 145.32 226.66 126.94 234.41 122.47 229.77 114.43 206.57 127.83 211.21 135.86 216.61 132.74"/>
  <circle class="st1" cx="264.41" cy="165.74" r="5.89" transform="translate(-39.75 235.51) rotate(-45)"/>
  <polygon class="st1" points="298.32 150.23 287.54 150.23 287.54 175.24 285.64 175.6 285.64 184.92 305.3 181.17 305.3 171.85 298.32 173.18 298.32 150.23"/>
  <polygon class="st1" points="321.86 150.23 311.08 150.23 311.08 175.88 309.15 176.25 309.15 185.57 331.95 181.23 331.95 171.9 321.86 173.83 321.86 150.23"/>
  <path class="st1" d="M346.13,173.02c-.71-3.89-.73-11.2-.73-22.79h-10.77c.04,5.65.29,19.77,1.89,27.19.92,4.27,3.65,7.11,5.26,7.11l5.23-.91s.38-2.32,1.58-6.06c1.2-3.73,2.49-5.75,2.49-5.75l-3.72-1.95c-1.05,1.77-1.22,3.16-1.22,3.16Z"/>
  <rect class="st1" x="428.92" y="118.03" width="35.22" height="7.5"/>
  <path class="st1" d="M432.04,129.37v15.95h30.06v-15.95h-30.06ZM453.59,139.01h-12.76v-3.4h12.76v3.4Z"/>
  <polygon class="st1" points="307.57 159.42 309.2 152.35 300.66 150.25 300.66 157.71 307.57 159.42"/>
  <polygon class="st1" points="300.66 167.85 307.34 169.52 308.98 162.44 300.66 160.39 300.66 167.85"/>
  <polygon class="st1" points="324.19 158.4 331.51 160.21 333.14 153.14 324.19 150.94 324.19 158.4"/>
  <polygon class="st1" points="324.19 168.54 331.28 170.3 332.92 163.23 324.19 161.09 324.19 168.54"/>
  <path class="st1" d="M430.05,182.97h7.94v-26.66h12.32l-4.52,8.57-5.53-3.22v8.01l3.01,1.66v10.24h7.04v-10.24s5.89-11.14,5.89-11.14v13.85c0,.7-.56,1.26-1.26,1.26h-2.69l1.7,7.37h3.08c3.93,0,7.11-3.18,7.11-7.11v-26.41h-34.09v33.81Z"/>
  <polygon class="st1" points="494.03 165.16 486.45 165.16 488.14 182.97 495.79 182.97 494.03 165.16"/>
  <path class="st1" d="M493.27,127.67h-8.2v-11.91h-9.36v11.91h-8.79v32.9h8.79v11.11h-8.79v8.42h17.56v-4.21l.02-15.32h8.76v-32.9ZM474.02,150.93v-13.61h3.12v13.61h-3.12ZM486.49,150.93h-3.12v-13.61h3.12v13.61Z"/>
  <path class="st1" d="M367.37,87.61v9.15h5.22v-9.04c0-3.67-2.43-6.77-5.76-7.81-.74-.23-1.51-.29-2.29-.3v5.95h.81c1.11.02,2.02.93,2.02,2.05Z"/>
  <path class="st1" d="M218.03,88.41l6.5,8.35h7.32l-6.63-8.52,2.46-3.5c1.99-2.82,2.32-6.52.86-9.66-1.58-3.4-5.03-5.6-8.78-5.6h-1.41v5.78h1.41c1.52,0,2.91.89,3.54,2.26.59,1.26.45,2.76-.35,3.9l-4.93,7Z"/>
  <path class="st1" d="M287.54,146.39h58.99v-29.71h-27.51v7.47h16.45v3.81h-16.17v6.72h16.17v3.77h-36.87v-3.77h16.17v-6.72h-16.17v-3.38c6.87-.56,12.73-1.3,17.6-2.22l-2.93-7.72c-9.61,1.69-18.19,2.73-25.73,3.11v28.64Z"/>
  <path class="st1" d="M271.65,124.41l-20.63,2.17-3.98-12.38-8.98,2.53,3.17,10.88-11.92,1.14,1.09,8.68,14.43-1.57c.34.49.58.84.6.86,5,7.05,9.8,8.51,15.08,8.51,5.43.18,11.14.01,11.14.01l.03-7.95h-9.8c-2.38,0-4.09-.87-5.24-1.78-.05-.04-.34-.25-.86-.84l16.96-1.85-1.09-8.41Z"/>
  <polygon class="st1" points="264.37 122.57 266.97 119.97 259.31 112.31 252.59 119.04 256.91 123.36 264.37 122.57"/>
  <g>
    <path class="st0" d="M107.62,156.16l.66,9.14,3.81-2.26-.67-9.24c-.09-1.3-.95-2.43-2.25-2.86-.65-.21-1.36-.18-2.02.02-4.72,1.38-9.09,2.02-13.05,2.16.64-.22,1.27-.45,1.9-.71,4.54-1.92,8.44-5.04,10.98-8.78l-2.05-1.39c-2.27,3.35-5.79,6.15-9.89,7.89-4.68,1.98-9.66,2.44-14.02,1.29-.18-.05-.34-.11-.52-.16-1.41-.5-2.64-1.08-3.7-1.7,2.05-1.1,3.65-2.97,4.37-5.3,1.18-3.85-.21-7.73-3.01-10.05,4.13-1.15,6.68-2.17,7.95-2.75-1.22-.76-2.27-1.79-3.18-2.97-2.17.84-5.99,2.11-11.88,3.39-2.8.65-4.77,2.79-5.26,5.84-.7,4.38,1.81,11.02,9.01,15.25,7.71,4.54,19.67,5.38,31.61,2.32.6-.15,1.19.26,1.24.88Z"/>
    <path class="st0" d="M103.69,110.11c1.99-2.44,6.97-7.48,16.29-10.65.85-.29,1.39-1.11,1.34-2-.02-.24-.44-5.79-6.23-7.48-5.21-1.52-11.48-6.36-12.84-12.33-1.15-5.04,1.2-10.22,6.97-15.41.25-.22.51-.19.65-.15.13.04.36.15.45.46,3.48,12.11,10.53,18.38,11.65,19.32.22-1.53.53-3.07.94-4.59-.03-.03-.06-.07-.1-.1-.4-.42-.82-.89-1.23-1.4-2.21-2.66-5.15-7.04-7.11-13.17-.1-.32-.21-.64-.3-.95-.38-1.3-1.22-2.47-2.44-3.07-1.75-.85-3.77-.55-5.17.71-8.62,7.75-9.21,14.74-8.18,19.24,1.71,7.52,9.14,13.37,15.59,15.25,1.08.31,1.81.86,2.31,1.45.43.51.2,1.29-.41,1.54-3.66,1.51-6.62,3.25-8.97,4.97-1.32.99-2.6,2.08-3.96,3.34-.52.51-.98.99-1.39,1.44.54.65,1.04,1.36,1.48,2.14.26.46.45.97.66,1.47Z"/>
    <path class="st0" d="M138.6,75.21c-2.38,3.49-3.7,8.03-3.7,12.84,0,3.76.83,7.35,2.3,10.4l2.04-1.46c-1.2-2.63-1.87-5.72-1.87-8.95,0-4.25,1.13-8.23,3.17-11.29l-1.94-1.55Z"/>
    <path class="st0" d="M85.15,125.58s.03.04.04.06c.09.14.18.28.28.42,0,0,.01.02.02.02.21.3.44.58.67.85,1.33,1.5,3,2.41,4.86,2.63.28.03.56.05.84.05,2.24,0,4.41-1.04,6.19-3,1.46-1.61,2.51-3.72,3.06-6.05.22-.17.47-.3.75-.4,1.25-.42,2.61.02,4.03,1.27.23-1.2.54-2.36.93-3.45-2.05-1.34-3.89-1.45-5.29-1.15-.02-2.35-.56-4.6-1.59-6.46-.29-.52-.61-1.01-.96-1.45-.34-.43-.7-.81-1.09-1.15-.01-.01-.03-.03-.04-.04-.37-.33-.77-.61-1.18-.86-.03-.02-.05-.03-.08-.05-.2-.12-.41-.22-.62-.32-.02-.01-.05-.02-.07-.03-.19-.09-.39-.16-.59-.23-.03,0-.05-.02-.08-.03-.21-.07-.42-.13-.64-.18-.05-.01-.09-.02-.14-.03-.22-.05-.44-.09-.67-.11-2.54-.29-5.03.75-7.03,2.95-1.83,2.01-3.03,4.8-3.38,7.84-.35,3.04.18,6.03,1.5,8.41.09.17.19.34.29.5ZM87.74,118.35c.64-.5,1.44-.72,2.24-.62.81.1,1.53.51,2.03,1.15l3.12-2.44c-1.15-1.47-2.81-2.41-4.66-2.64-.79-.1-1.56-.05-2.32.11.4-.92.91-1.74,1.52-2.41.59-.66,1.78-1.7,3.27-1.7.12,0,.25,0,.37.02,1.67.19,2.7,1.63,3.16,2.46.91,1.64,1.28,3.84,1.03,6.03-.25,2.2-1.12,4.25-2.38,5.64-.64.71-1.97,1.87-3.64,1.68-1.67-.19-2.7-1.63-3.16-2.46-.67-1.2-1.04-2.71-1.1-4.3.15-.19.33-.37.52-.52Z"/>
    <path class="st0" d="M134.04,102.96c-5.4-7.57-6.51-17.59-2.97-26.8,2.43-6.32,6.87-11.61,12.51-14.91,1.06-.62,2.29-.52,3.24.28.74.62,1.04,1.62.86,2.57-.86,4.49-1.29,9.61-1.28,15.21,0,8.29,2.31,14.08,4.97,20.78,3.89,9.79,8.73,21.97,9.42,48.39l3.89-2.31c-.28-7.94-.94-14.58-1.83-20.25-2.09-12.38-5.3-21.01-7.8-27.29-2.62-6.59-4.69-11.79-4.69-19.32,0-5.28.39-10.09,1.18-14.3.5-2.66-.51-5.45-2.75-6.97-2.17-1.47-4.92-1.56-7.2-.23-6.41,3.74-11.46,9.75-14.21,16.91-.14.36-.27.72-.39,1.08-.03.07-.05.15-.07.22-.1.3-.2.6-.29.9-.02.06-.03.12-.05.17-.1.33-.2.66-.29.99,0,.03-.02.06-.02.09-.1.37-.19.73-.28,1.1-2.14,9.12-.44,18.55,4.85,25.96l3.23-2.3Z"/>
    <path class="st0" d="M172.16,160.71l-17.57,12.55-1.63-4.21,18.79-13.42c.29-.21.49-.53.53-.89.06-.49-.17-.98-.59-1.25l-6.09-3.89-52.33,31.04-.97-13.76-9.01,5.35c-.5.3-.84.8-.94,1.37l-2.43,14.24c-.07.41,0,.84.18,1.22l2.18,4.39c.58,1.18,2.13,1.47,3.1.59l6.67-6.04c.99,2.46,3.88,9.96,5.37,13.84.47,1.21,1.94,1.65,3,.89l51.18-36.56c.56-.4.87-1.07.82-1.75l-.26-3.71ZM148.16,177.85l-1.74-4.5,3.16-2.25,1.74,4.5-3.16,2.26Z"/>
    <path class="st1" d="M91.48,125.63c1.67.19,3-.97,3.64-1.68,1.26-1.39,2.13-3.44,2.38-5.64.25-2.2-.12-4.4-1.03-6.03-.46-.84-1.49-2.27-3.16-2.46-.13-.01-.25-.02-.37-.02-1.49,0-2.68,1.04-3.27,1.7-.61.67-1.12,1.49-1.52,2.41.75-.16,1.53-.2,2.32-.11,1.86.23,3.51,1.16,4.66,2.64l-3.12,2.44c-.5-.64-1.22-1.05-2.03-1.15-.81-.1-1.6.12-2.24.62-.2.15-.37.33-.52.52.05,1.59.43,3.09,1.1,4.3.46.84,1.49,2.27,3.16,2.46Z"/>
    <polygon class="st1" points="146.42 173.35 148.16 177.85 151.31 175.6 149.58 171.1 146.42 173.35"/>
    <path class="st1" d="M175.74,164.18l-.55-7.67c.2-.43.33-.88.39-1.36.22-1.76-.6-3.51-2.1-4.47l-5.25-3.35c-.84-26.62-7.06-42.27-10.1-49.92-2.58-6.5-4.45-11.2-4.46-18.1,0-5.07.37-9.68,1.12-13.68.76-4.05-.87-8.11-4.16-10.34-3.24-2.19-7.35-2.33-10.75-.35-7.07,4.12-12.62,10.73-15.64,18.59-.02.06-.04.11-.07.17-2.33-2.9-5.36-8.02-6.82-13.01-.67-2.29-2.19-4.16-4.18-5.12-2.95-1.44-6.43-.95-8.85,1.23-9.82,8.83-10.42,17.08-9.2,22.45,1.8,7.9,8.46,13.77,14.84,16.58-4.19,2.23-7.28,4.79-11.1,8.48-1.42-.96-3.02-1.55-4.73-1.75-3.64-.42-7.14,1-9.88,4.02-2.29,2.52-3.79,5.97-4.22,9.69-.37,3.23.08,6.44,1.28,9.18-1.99.78-5.18,1.8-11.05,3.16-4.12.95-7.1,4.23-7.8,8.55-.88,5.46,2.07,13.63,10.61,18.65,7.88,4.63,19.45,5.82,31.4,3.31l.56,8.16-3.46,2.05c-1.34.8-2.26,2.13-2.52,3.67l-2.43,14.24c-.19,1.12-.02,2.24.48,3.26l2.18,4.39c.75,1.5,2.12,2.54,3.77,2.85,1.65.31,3.31-.15,4.55-1.28l3.1-2.8c1.19,3.06,2.63,6.8,3.61,9.34.59,1.54,1.84,2.7,3.42,3.17.51.15,1.02.23,1.54.23,1.09,0,2.16-.34,3.08-.99l51.18-36.56c1.5-1.07,2.34-2.87,2.21-4.7ZM125.97,79.3c.09-.37.18-.73.28-1.1,0-.03.02-.06.02-.09.09-.33.19-.66.29-.99.02-.06.03-.12.05-.17.09-.3.19-.6.29-.9.03-.07.05-.15.07-.22.13-.36.26-.72.39-1.08,2.75-7.16,7.8-13.16,14.21-16.91,2.28-1.33,5.03-1.24,7.2.23,2.24,1.52,3.25,4.31,2.75,6.97-.79,4.21-1.18,9.02-1.18,14.3,0,7.53,2.08,12.74,4.69,19.32,2.49,6.28,5.7,14.91,7.8,27.29.89,5.68,1.55,12.32,1.83,20.25l-3.89,2.31c-.69-26.42-5.53-38.6-9.42-48.39-2.66-6.71-4.97-12.5-4.97-20.78,0-5.6.43-10.72,1.28-15.21.18-.95-.11-1.95-.86-2.57-.95-.8-2.18-.9-3.24-.28-5.64,3.29-10.08,8.58-12.51,14.91-3.54,9.21-2.43,19.23,2.97,26.8l-3.23,2.3c-5.29-7.41-6.99-16.84-4.85-25.96ZM139.24,97l-2.04,1.46c-1.48-3.05-2.3-6.65-2.3-10.4,0-4.81,1.32-9.35,3.7-12.84l1.94,1.55c-2.04,3.06-3.17,7.04-3.17,11.29,0,3.23.67,6.32,1.87,8.95ZM131.46,127.67c-.94,8.11-6.43,14.25-12.51,14.25-.35,0-.69-.02-1.04-.06-3.26-.38-6.09-2.43-7.95-5.78-1.75-3.14-2.46-7.09-1.99-11.13.99-8.58,7.07-14.95,13.55-14.19,6.48.75,10.94,8.34,9.94,16.91ZM102.95,105.07c1.36-1.25,2.64-2.35,3.96-3.34,2.35-1.71,5.31-3.46,8.97-4.97.62-.25.84-1.03.41-1.54-.5-.59-1.24-1.14-2.31-1.45-6.45-1.89-13.88-7.73-15.59-15.25-1.02-4.5-.44-11.49,8.18-19.24,1.41-1.26,3.42-1.57,5.17-.71,1.22.59,2.06,1.76,2.44,3.07.09.32.19.63.3.95,1.95,6.13,4.9,10.51,7.11,13.17.42.51.83.98,1.23,1.4.03.03.07.07.1.1-.41,1.52-.73,3.05-.94,4.59-1.12-.94-8.17-7.21-11.65-19.32-.09-.31-.32-.42-.45-.46-.13-.04-.4-.07-.65.15-5.77,5.19-8.11,10.37-6.97,15.41,1.36,5.97,7.63,10.81,12.84,12.33,5.79,1.69,6.21,7.25,6.23,7.48.06.89-.49,1.71-1.34,2-9.32,3.18-14.3,8.22-16.29,10.65-.21-.49-.4-1-.66-1.47-.43-.78-.93-1.49-1.48-2.14.4-.45.87-.93,1.39-1.44ZM83.36,116.67c.35-3.04,1.55-5.83,3.38-7.84,1.99-2.19,4.49-3.24,7.03-2.95.23.03.45.07.67.11.05,0,.09.02.14.03.22.05.43.11.64.18.03,0,.06.02.08.03.2.07.4.15.59.23.02.01.05.02.07.03.21.1.41.2.62.32.03.01.05.03.08.05.41.25.81.53,1.18.86.01.01.03.03.04.04.39.34.75.73,1.09,1.15.35.44.67.92.96,1.45,1.04,1.87,1.58,4.11,1.59,6.46,1.4-.29,3.23-.19,5.29,1.15-.39,1.1-.7,2.25-.93,3.45-1.42-1.25-2.78-1.7-4.03-1.27-.28.1-.53.23-.75.4-.55,2.33-1.6,4.44-3.06,6.05-1.77,1.95-3.94,3-6.19,3-.28,0-.56-.02-.84-.05-1.86-.22-3.54-1.13-4.86-2.63-.24-.27-.46-.55-.67-.85,0,0-.01-.02-.02-.02-.1-.14-.19-.27-.28-.42-.01-.02-.03-.04-.04-.06-.1-.16-.2-.33-.29-.5-1.32-2.38-1.85-5.36-1.5-8.41ZM74.78,152.97c-7.19-4.23-9.71-10.87-9.01-15.25.49-3.05,2.47-5.19,5.26-5.84,5.89-1.27,9.71-2.55,11.88-3.39.91,1.19,1.96,2.21,3.18,2.97-1.28.58-3.82,1.6-7.95,2.75,2.8,2.32,4.2,6.2,3.01,10.05-.72,2.33-2.32,4.2-4.37,5.3,1.05.62,2.29,1.2,3.7,1.7.18.05.34.12.52.16,4.36,1.15,9.34.69,14.02-1.29,4.11-1.74,7.62-4.54,9.89-7.89l2.05,1.39c-2.54,3.74-6.44,6.85-10.98,8.78-.63.27-1.26.5-1.9.71,3.95-.14,8.33-.78,13.05-2.16.66-.19,1.37-.23,2.02-.02,1.31.43,2.16,1.56,2.25,2.86l.67,9.24-3.81,2.26-.66-9.14c-.04-.62-.64-1.03-1.24-.88-11.94,3.07-23.89,2.22-31.61-2.32ZM171.6,166.17l-51.18,36.56c-1.05.75-2.53.31-3-.89-1.49-3.88-4.38-11.38-5.37-13.84l-6.67,6.04c-.97.88-2.52.59-3.1-.59l-2.18-4.39c-.19-.38-.25-.8-.18-1.22l2.43-14.24c.1-.57.44-1.07.94-1.37l9.01-5.35.97,13.76,52.33-31.04,6.09,3.89c.42.27.65.75.59,1.25-.04.36-.24.68-.53.89l-18.79,13.42,1.63,4.21,17.57-12.55.26,3.71c.05.69-.26,1.35-.82,1.75Z"/>
    <path class="st1" d="M120.47,114.65c-3.39,0-6.64,3.35-8.01,7.99,3.7-2.07,8.46-1.2,11.15,2.24.73.93,1.25,1.97,1.55,3.11l-3.82,1.03c-.17-.62-.45-1.19-.85-1.7-1.62-2.08-4.64-2.45-6.72-.82-1.04.82-1.68,1.99-1.81,3.31.24,1.59.72,3.07,1.44,4.35,1.23,2.21,2.99,3.55,4.95,3.78,4.24.49,8.43-4.42,9.16-10.72.73-6.3-2.23-12.04-6.47-12.53-.2-.02-.39-.03-.59-.03Z"/>
  </g>
</svg>