<?xml version="1.0" encoding="UTF-8"?>
<svg id="Layer_1" xmlns="http://www.w3.org/2000/svg" version="1.1" viewBox="0 0 560 260">
  <!-- Generator: Adobe Illustrator 30.3.0, SVG Export Plug-In . SVG Version: 2.1.3 Build 182)  -->
  <path d="M279.73,89.71c-1.84,0-3.34,1.5-3.34,3.34s1.5,3.34,3.34,3.34,3.34-1.5,3.34-3.34-1.5-3.34-3.34-3.34Z"/>
  <path d="M300.46,97.16c3.84,0,7.56-1.65,10.22-4.52l.63-.68-4.53-3.4-.51.51c-1.56,1.54-3.62,2.4-5.81,2.4-4.56,0-8.27-3.71-8.27-8.27s3.71-8.27,8.27-8.27c2.45,0,4.77,1.11,6.36,3.06l.43.53,5.08-2.68-.56-.78c-2.62-3.64-6.86-5.82-11.32-5.82-7.7,0-13.96,6.26-13.96,13.96s6.26,13.96,13.96,13.96Z"/>
  <path d="M323.06,96.08c1.6,0,3.16-.42,4.54-1.22l.69,1.52h4.99v-18.7h-4.99l-.69,1.52c-1.38-.8-2.94-1.22-4.54-1.22-4.99,0-9.05,4.06-9.05,9.05s4.06,9.05,9.05,9.05ZM323.33,83.24c2.03,0,4.19,1.35,4.19,3.86s-2.16,3.86-4.19,3.86-3.86-1.73-3.86-3.86,1.73-3.86,3.86-3.86Z"/>
  <polygon points="215.17 78.51 215.17 74.88 215.17 69.1 209.4 69.1 209.4 96.38 215.17 96.38 215.17 78.51"/>
  <path d="M346.44,85.21c-1.82-.48-2.1-.56-2.99-.82-.59-.17-.8-.43-.8-.99,0-.51.31-1.06.99-1.06l7.11.14-.88-4.82h-6.8c-3.35,0-5.69,2.37-5.69,5.77,0,2.54,1.67,4.29,4.83,5.07,1.95.48,2.45.61,3.33.85.74.2,1.03.55,1,1.2-.03.6-.43,1.22-1.15,1.22h-7.44l.76,4.62h6.64c4.36,0,6.35-2.96,6.35-5.7,0-2.6-1.92-4.59-5.26-5.46Z"/>
  <path d="M241.46,96.76c5.16,0,9.35-4.2,9.35-9.35s-4.2-9.35-9.35-9.35-9.35,4.2-9.35,9.35,4.2,9.35,9.35,9.35ZM241.46,83.73c2.03,0,3.67,1.65,3.67,3.67s-1.65,3.67-3.67,3.67-3.67-1.65-3.67-3.67,1.65-3.67,3.67-3.67Z"/>
  <path d="M262.6,96.76c5.16,0,9.35-4.2,9.35-9.35s-4.2-9.35-9.35-9.35-9.35,4.2-9.35,9.35,4.2,9.35,9.35,9.35ZM262.6,83.73c2.03,0,3.67,1.65,3.67,3.67s-1.65,3.67-3.67,3.67-3.67-1.65-3.67-3.67,1.65-3.67,3.67-3.67Z"/>
  <rect x="355.52" y="69.69" width="5.84" height="26.69"/>
  <path d="M409.38,146.33v-7.23c4.84,2.54,8.51,4.07,8.51,4.07l5.42-10.06c-9.51-2.96-17.81-7.65-23.85-12.71-.05-.04-.15-.14-.19-.17,0,0-.89,1.62-2.3,3.59-1.41,1.97-3.97,4.43-3.97,4.43,0,0,.78.72.83.76,3.56,3.03,7.87,5.8,11.85,8.06h-30.65c2.6-1.54,5.16-3.18,7.32-4.76,6.2-4.54,10.03-8.23,12.47-12.03,1.77-2.76,2.54-4.05,2.77-4.9.12-.43-.21-.86-.66-.86h-12.28c-4.56,7.66-14.21,13.94-27.99,20.07.18.37,4.87,9.73,4.87,9.73,1.55-.73,5.07-2.5,9.05-4.7v6.71h14v6.33h-14v9.26h14v11.45h-6.86v-7.87h-8.86v7.87h-9.2v9.26h60.67v-9.26h-9.2v-7.87h-8.86v7.87h-6.86v-11.45h14v-9.26h-14v-6.33h14Z"/>
  <path d="M133.54,102.32c-5.7-7.98-6.87-18.55-3.13-28.27,2.56-6.67,7.25-12.25,13.2-15.72,1.12-.65,2.42-.55,3.42.3.78.66,1.09,1.71.9,2.72-.9,4.74-1.36,10.14-1.35,16.05,0,8.74,2.44,14.85,5.25,21.93,4.1,10.33,9.21,23.17,9.94,51.05l4.11-2.44c-.97-27.02-6.05-39.82-10.16-50.16-2.76-6.95-4.94-12.44-4.95-20.39,0-5.57.41-10.64,1.24-15.08.53-2.81-.54-5.75-2.9-7.35-2.29-1.55-5.19-1.64-7.6-.24-6.77,3.95-12.09,10.28-14.99,17.84-4.24,11.03-2.88,23.07,3.63,32.2l3.4-2.43Z"/>
  <path d="M155.22,176.48l-1.72-4.44,19.83-14.16c.31-.22.51-.56.56-.94.07-.52-.18-1.03-.62-1.31l-6.43-4.11-55.21,32.74-1.03-14.51-9.51,5.64c-.53.31-.89.84-.99,1.45l-2.57,15.02c-.07.44,0,.89.19,1.28l2.3,4.63c.62,1.24,2.25,1.55,3.27.62l7.04-6.37c1.04,2.6,4.09,10.51,5.67,14.61.49,1.28,2.05,1.74,3.16.94l53.99-38.57c.59-.42.92-1.12.87-1.85l-.28-3.91-18.54,13.24ZM148.43,181.33l-1.83-4.74,3.33-2.38,1.83,4.74-3.33,2.38Z"/>
  <path d="M138.35,73.04c-2.51,3.68-3.9,8.47-3.9,13.55,0,3.96.87,7.76,2.43,10.97l2.15-1.54c-1.27-2.77-1.97-6.03-1.97-9.44,0-4.48,1.19-8.68,3.34-11.91l-2.05-1.64Z"/>
  <path d="M243.75,140.58l-9.88,3.38,1.5,4.37h-26.85v8.69h14.52l-14.72,7.38,4.3,8.59,7.63-3.82.03,6.28-8.16,1.56,1.71,8.99,28.23-5.38-1.71-8.99-10.61,2.02.04-9.25,10.58-5.31,4.73,13.3c2.21,6.46,8.28,10.8,15.1,10.8h12.66v-8.96h-12.66c-2.99,0-5.66-1.9-6.62-4.74l-4.43-12.46h24.3v-8.69h-27.02l-2.65-7.75Z"/>
  <polygon points="216.21 132.36 216.21 144.94 226.26 144.94 226.26 126.56 234.01 122.09 229.37 114.05 206.17 127.45 210.81 135.48 216.21 132.36"/>
  <circle cx="264.01" cy="165.36" r="5.89" transform="translate(-30.93 65.08) rotate(-13.28)"/>
  <path d="M88.16,130.38c.3.03.59.05.89.05,2.37,0,4.66-1.1,6.53-3.16,1.54-1.7,2.65-3.92,3.23-6.39.23-.17.49-.32.79-.42,1.32-.45,2.75.02,4.25,1.34.24-1.27.57-2.49.98-3.64-2.16-1.41-4.1-1.53-5.58-1.22-.02-2.48-.59-4.85-1.68-6.82-1.52-2.73-3.83-4.41-6.5-4.72-2.68-.31-5.31.79-7.41,3.11-1.93,2.12-3.19,5.06-3.57,8.27-.37,3.21.19,6.36,1.58,8.87,1.52,2.73,3.83,4.41,6.5,4.72ZM90.18,109.53c.13,0,.26,0,.39.02,1.76.2,2.85,1.72,3.34,2.6.96,1.73,1.35,4.05,1.08,6.36s-1.18,4.49-2.51,5.95c-.68.75-2.08,1.97-3.84,1.77-1.76-.2-2.85-1.72-3.34-2.6-.7-1.27-1.1-2.86-1.16-4.53.16-.2.34-.39.55-.55.68-.53,1.52-.76,2.37-.66.85.1,1.61.53,2.14,1.21l3.29-2.57c-1.21-1.55-2.96-2.54-4.92-2.78-.83-.1-1.65-.06-2.44.11.42-.97.96-1.84,1.6-2.54.63-.69,1.87-1.79,3.45-1.79Z"/>
  <path d="M120.33,110.54c-6.83-.8-13.24,5.92-14.29,14.97-.49,4.26.25,8.43,2.1,11.74,1.97,3.54,4.95,5.7,8.39,6.1.37.04.73.06,1.1.06,6.41,0,12.2-6.47,13.2-15.03,1.05-9.05-3.66-17.05-10.49-17.84ZM126.67,127.91c-.77,6.65-5.2,11.82-9.67,11.31-2.07-.24-3.93-1.66-5.23-3.99-.76-1.36-1.26-2.92-1.52-4.59.14-1.39.81-2.63,1.91-3.49,2.19-1.71,5.37-1.32,7.09.87.42.54.72,1.14.9,1.79l4.03-1.08c-.32-1.19-.87-2.3-1.64-3.28-2.84-3.63-7.86-4.55-11.76-2.36,1.44-4.89,4.87-8.43,8.45-8.43.21,0,.41.01.62.04,4.47.52,7.59,6.57,6.82,13.22Z"/>
  <path d="M112.37,92.63c1.14.33,1.91.91,2.44,1.53.45.53.22,1.36-.43,1.62-7.75,3.19-12.52,7.41-15.11,10.27.57.69,1.1,1.43,1.56,2.25.27.49.47,1.03.69,1.55,2.1-2.57,7.36-7.89,17.18-11.24.89-.31,1.47-1.17,1.41-2.11-.02-.25-.46-6.11-6.57-7.89-5.5-1.61-12.11-6.71-13.55-13.01-1.21-5.32,1.26-10.78,7.35-16.26.26-.23.54-.2.68-.16.14.04.38.16.48.48,3.67,12.78,11.11,19.4,12.29,20.38.23-1.62.56-3.24,1-4.84-2.41-2.56-6.74-8.03-9.21-16.49-.4-1.38-1.29-2.61-2.58-3.23-1.85-.9-3.97-.58-5.45.75-9.09,8.17-9.71,15.55-8.63,20.29,1.81,7.94,9.64,14.1,16.45,16.09Z"/>
  <path d="M105.67,158.45l.7,9.65,4.02-2.38-.7-9.75c-.1-1.37-1-2.56-2.38-3.02-.69-.23-1.44-.18-2.13.02-4.98,1.45-9.59,2.13-13.77,2.28.67-.23,1.34-.47,2-.75,4.79-2.03,8.9-5.31,11.58-9.26l-2.16-1.47c-2.4,3.53-6.1,6.49-10.44,8.32-4.94,2.09-10.19,2.57-14.8,1.36-.19-.05-.36-.12-.55-.17-1.48-.53-2.79-1.14-3.9-1.79,2.16-1.16,3.85-3.13,4.61-5.59,1.25-4.06-.23-8.15-3.18-10.6,4.36-1.21,7.04-2.29,8.39-2.9-1.29-.81-2.39-1.88-3.35-3.14-2.29.89-6.32,2.23-12.53,3.58-2.96.64-5.04,2.94-5.55,6.16-.74,4.62,1.91,11.63,9.5,16.09,8.14,4.78,20.75,5.68,33.34,2.44.63-.16,1.26.28,1.31.93Z"/>
  <polygon points="297.92 149.85 287.14 149.85 287.14 174.86 285.24 175.22 285.24 184.54 304.9 180.79 304.9 171.47 297.92 172.8 297.92 149.85"/>
  <polygon points="321.46 149.85 310.68 149.85 310.68 175.5 308.74 175.87 308.74 185.19 331.54 180.85 331.54 171.52 321.46 173.45 321.46 149.85"/>
  <path d="M345.73,172.64c-.71-3.89-.73-11.2-.73-22.79h-10.77c.04,5.65.29,19.77,1.89,27.19.92,4.27,3.65,7.11,5.26,7.11l5.23-.91s.38-2.32,1.58-6.06c1.2-3.73,2.49-5.75,2.49-5.75l-3.72-1.95c-1.05,1.77-1.22,3.16-1.22,3.16Z"/>
  <rect x="428.52" y="117.65" width="35.22" height="7.5"/>
  <path d="M431.64,128.99v15.95h30.06v-15.95h-30.06ZM453.19,138.63h-12.76v-3.4h12.76v3.4Z"/>
  <polygon points="307.16 159.04 308.8 151.97 300.26 149.87 300.26 157.33 307.16 159.04"/>
  <polygon points="300.26 167.47 306.94 169.14 308.58 162.06 300.26 160.01 300.26 167.47"/>
  <polygon points="323.79 158.02 331.11 159.83 332.74 152.76 323.79 150.56 323.79 158.02"/>
  <polygon points="323.79 168.16 330.88 169.92 332.52 162.85 323.79 160.71 323.79 168.16"/>
  <path d="M429.65,182.59h7.94v-26.66h12.32l-4.52,8.57-5.53-3.22v8.01l3.01,1.66v10.24h7.04v-10.24s5.89-11.14,5.89-11.14v13.85c0,.7-.56,1.26-1.26,1.26h-2.69l1.7,7.37h3.08c3.93,0,7.11-3.18,7.11-7.11v-26.41h-34.09v33.81Z"/>
  <polygon points="493.63 164.78 486.05 164.78 487.74 182.59 495.39 182.59 493.63 164.78"/>
  <path d="M492.87,127.29h-8.2v-11.91h-9.36v11.91h-8.79v32.9h8.79v11.11h-8.79v8.42h17.56v-4.21l.02-15.32h8.76v-32.9ZM473.61,150.55v-13.61h3.12v13.61h-3.12ZM486.09,150.55h-3.12v-13.61h3.12v13.61Z"/>
  <path d="M366.97,87.23v9.15h5.22v-9.04c0-3.67-2.43-6.77-5.76-7.81-.74-.23-1.51-.29-2.29-.3v5.95h.81c1.11.02,2.02.93,2.02,2.05Z"/>
  <path d="M217.63,88.03l6.5,8.35h7.32l-6.63-8.52,2.46-3.5c1.99-2.82,2.32-6.52.86-9.66-1.58-3.4-5.03-5.6-8.78-5.6h-1.41v5.78h1.41c1.52,0,2.91.89,3.54,2.26.59,1.26.45,2.76-.35,3.9l-4.93,7Z"/>
  <path d="M287.14,146.01h58.99v-29.71h-27.51v7.47h16.45v3.81h-16.17v6.72h16.17v3.77h-36.87v-3.77h16.17v-6.72h-16.17v-3.38c6.87-.56,12.73-1.3,17.6-2.22l-2.93-7.72c-9.61,1.69-18.19,2.73-25.73,3.11v28.64Z"/>
  <path d="M271.25,124.03l-20.63,2.17-3.98-12.38-8.98,2.53,3.17,10.88-11.92,1.14,1.09,8.68,14.43-1.57c.34.49.58.84.6.86,5,7.05,9.8,8.51,15.08,8.51,5.43.18,11.14.01,11.14.01l.03-7.95h-9.8c-2.38,0-4.09-.87-5.24-1.78-.05-.04-.34-.25-.86-.84l16.96-1.85-1.09-8.41Z"/>
  <polygon points="263.97 122.19 266.57 119.59 258.91 111.94 252.19 118.66 256.51 122.98 263.97 122.19"/>
</svg>